<svg width="74" height="38" viewBox="0 0 74 38" fill="none" xmlns="http://www.w3.org/2000/svg">
<path d="M25.239 10.9917H27.9024L32.533 22.2985H32.7035L37.3342 10.9917H39.9975V25.5371H37.9095V15.0115H37.7745L33.4847 25.5158H31.7518L27.462 15.0044H27.3271V25.5371H25.239V10.9917ZM44.1828 10.9917V25.5371H41.9882V10.9917H44.1828ZM47.4075 25.6721C47.0193 25.6721 46.6855 25.5347 46.4061 25.2601C46.1268 24.9808 45.9871 24.6446 45.9871 24.2516C45.9871 23.8633 46.1268 23.5319 46.4061 23.2573C46.6855 22.9779 47.0193 22.8382 47.4075 22.8382C47.7958 22.8382 48.1296 22.9779 48.409 23.2573C48.6883 23.5319 48.828 23.8633 48.828 24.2516C48.828 24.512 48.7617 24.7511 48.6291 24.9689C48.5013 25.182 48.3308 25.3525 48.1178 25.4803C47.9047 25.6081 47.668 25.6721 47.4075 25.6721Z" fill="#111111"/>
<path d="M72.6211 19.0215C72.6211 23.5544 68.9723 27.9196 62.4784 31.211C56.0405 34.474 47.0768 36.5215 37.1211 36.5215C27.1654 36.5215 18.2017 34.474 11.7638 31.211C5.26988 27.9196 1.62109 23.5544 1.62109 19.0215C1.62109 14.4885 5.26988 10.1234 11.7638 6.83198C18.2017 3.56893 27.1654 1.52148 37.1211 1.52148C47.0768 1.52148 56.0405 3.56893 62.4784 6.83198C68.9723 10.1234 72.6211 14.4885 72.6211 19.0215Z" stroke="#111111" stroke-width="2"/>
</svg>
