<svg width="74" height="38" viewBox="0 0 74 38" fill="none" xmlns="http://www.w3.org/2000/svg">
<path d="M36.4655 10.9917V25.5371H34.4485L27.055 14.8695H26.9201V25.5371H24.7255V10.9917H26.7567L34.1573 21.6735H34.2922V10.9917H36.4655ZM37.3447 10.9917H39.8376L43.6373 17.6039H43.7936L47.5933 10.9917H50.0862L44.8092 19.8269V25.5371H42.6217V19.8269L37.3447 10.9917Z" fill="#111111"/>
<path d="M72.7402 19.0215C72.7402 23.5544 69.0914 27.9196 62.5975 31.211C56.1596 34.474 47.1959 36.5215 37.2402 36.5215C27.2845 36.5215 18.3208 34.474 11.8829 31.211C5.38902 27.9196 1.74023 23.5544 1.74023 19.0215C1.74023 14.4885 5.38902 10.1234 11.8829 6.83198C18.3208 3.56893 27.2845 1.52148 37.2402 1.52148C47.1959 1.52148 56.1596 3.56893 62.5975 6.83198C69.0914 10.1234 72.7402 14.4885 72.7402 19.0215Z" stroke="#111111" stroke-width="2"/>
</svg>
