<svg width="74" height="38" viewBox="0 0 74 38" fill="none" xmlns="http://www.w3.org/2000/svg">
<path d="M23.2982 25.5371V10.9917H25.4928V23.6479H32.0837V25.5371H23.2982ZM30.7754 12.8809V10.9917H42.0325V12.8809H37.4942V25.5371H35.3067V12.8809H30.7754ZM48.0289 25.5371H43.3201V10.9917H48.178C49.6032 10.9917 50.8272 11.2828 51.8499 11.8652C52.8726 12.4429 53.6563 13.2739 54.2008 14.3581C54.75 15.4377 55.0246 16.7327 55.0246 18.2431C55.0246 19.7582 54.7476 21.0603 54.1937 22.1493C53.6444 23.2383 52.849 24.0764 51.8073 24.6635C50.7656 25.2459 49.5062 25.5371 48.0289 25.5371ZM45.5147 23.6195H47.9082C49.0161 23.6195 49.937 23.4112 50.6709 22.9945C51.4048 22.5731 51.9541 21.9647 52.3187 21.1692C52.6832 20.369 52.8655 19.3936 52.8655 18.2431C52.8655 17.102 52.6832 16.1337 52.3187 15.3382C51.9588 14.5428 51.4214 13.9391 50.7064 13.5272C49.9915 13.1152 49.1037 12.9093 48.0431 12.9093H45.5147V23.6195Z" fill="#111111"/>
<path d="M72.6807 19.0215C72.6807 23.5544 69.0319 27.9196 62.538 31.211C56.1001 34.474 47.1364 36.5215 37.1807 36.5215C27.225 36.5215 18.2613 34.474 11.8234 31.211C5.32945 27.9196 1.68066 23.5544 1.68066 19.0215C1.68066 14.4885 5.32945 10.1234 11.8234 6.83198C18.2613 3.56893 27.225 1.52148 37.1807 1.52148C47.1364 1.52148 56.1001 3.56893 62.538 6.83198C69.0319 10.1234 72.6807 14.4885 72.6807 19.0215Z" stroke="#111111" stroke-width="2"/>
</svg>
