<svg width="73" height="38" viewBox="0 0 73 38" fill="none" xmlns="http://www.w3.org/2000/svg">
<path d="M24.6179 11.0688H27.2813L31.9119 22.3756H32.0824L36.7131 11.0688H39.3764V25.6143H37.2884V15.0887H37.1534L32.8636 25.593H31.1307L26.8409 15.0816H26.706V25.6143H24.6179V11.0688ZM43.5617 11.0688V25.6143H41.3671V11.0688H43.5617ZM46.7864 25.7492C46.3982 25.7492 46.0644 25.6119 45.785 25.3373C45.5057 25.0579 45.366 24.7217 45.366 24.3287C45.366 23.9405 45.5057 23.609 45.785 23.3344C46.0644 23.0551 46.3982 22.9154 46.7864 22.9154C47.1747 22.9154 47.5085 23.0551 47.7879 23.3344C48.0672 23.609 48.2069 23.9405 48.2069 24.3287C48.2069 24.5892 48.1406 24.8283 48.008 25.0461C47.8802 25.2591 47.7097 25.4296 47.4967 25.5574C47.2836 25.6853 47.0469 25.7492 46.7864 25.7492Z" fill="#111111"/>
<path d="M72 19.0986C72 23.6316 68.3512 27.9967 61.8573 31.2881C55.4194 34.5512 46.4557 36.5986 36.5 36.5986C26.5443 36.5986 17.5806 34.5512 11.1427 31.2881C4.64879 27.9967 1 23.6316 1 19.0986C1 14.5657 4.64879 10.2006 11.1427 6.90913C17.5806 3.64608 26.5443 1.59863 36.5 1.59863C46.4557 1.59863 55.4194 3.64608 61.8573 6.90913C68.3512 10.2006 72 14.5657 72 19.0986Z" stroke="#111111" stroke-width="2"/>
</svg>
