<svg width="141" height="61" viewBox="0 0 141 61" fill="none" xmlns="http://www.w3.org/2000/svg">
<path d="M139.957 30.6348C139.957 34.5011 138.132 38.2526 134.691 41.7392C131.246 45.2293 126.222 48.4098 119.948 51.0983C107.405 56.4742 90.0188 59.8192 70.7722 59.8192C51.5256 59.8192 34.1397 56.4742 21.596 51.0983C15.3227 48.4098 10.2981 45.2293 6.85365 41.7392C3.41267 38.2526 1.58779 34.5011 1.58779 30.6348C1.58779 26.7684 3.41267 23.0169 6.85365 19.5303C10.2981 16.0402 15.3227 12.8598 21.596 10.1712C34.1397 4.79531 51.5256 1.45034 70.7722 1.45034C90.0188 1.45034 107.405 4.79531 119.948 10.1712C126.222 12.8598 131.246 16.0402 134.691 19.5303C138.132 23.0169 139.957 26.7684 139.957 30.6348Z" stroke="#111111" stroke-width="1.63115"/>
<path d="M35.6554 42.1753V39.5803L43.6837 31.2623C44.541 30.3587 45.2477 29.5671 45.8037 28.8874C46.3675 28.2001 46.7884 27.5475 47.0665 26.9296C47.3445 26.3117 47.4835 25.6553 47.4835 24.9602C47.4835 24.1724 47.2982 23.4928 46.9275 22.9212C46.5568 22.342 46.0509 21.8979 45.4098 21.589C44.7688 21.2723 44.0467 21.114 43.2435 21.114C42.3939 21.114 41.6525 21.2878 41.0192 21.6353C40.3859 21.9829 39.8993 22.4733 39.5595 23.1066C39.2197 23.7399 39.0498 24.4813 39.0498 25.3309H35.6322C35.6322 23.8866 35.9643 22.6239 36.6285 21.5426C37.2927 20.4614 38.2041 19.6234 39.3625 19.0287C40.521 18.4263 41.8378 18.1251 43.313 18.1251C44.8036 18.1251 46.1165 18.4224 47.2518 19.0171C48.3949 19.6041 49.2869 20.4073 49.9279 21.4268C50.569 22.4385 50.8895 23.5816 50.8895 24.8559C50.8895 25.7364 50.7234 26.5975 50.3913 27.4393C50.067 28.2812 49.4993 29.2195 48.6884 30.2545C47.8774 31.2817 46.7498 32.529 45.3056 33.9964L40.5905 38.9315V39.1053H51.2718V42.1753H35.6554ZM61.9651 42.5692C60.1347 42.5615 58.5707 42.0788 57.2732 41.1211C55.9757 40.1634 54.9833 38.7693 54.2959 36.9389C53.6085 35.1085 53.2649 32.9035 53.2649 30.324C53.2649 27.7521 53.6085 25.5549 54.2959 23.7322C54.991 21.9095 55.9873 20.5193 57.2848 19.5616C58.59 18.6039 60.1501 18.1251 61.9651 18.1251C63.7801 18.1251 65.3363 18.6078 66.6338 19.5732C67.9313 20.5309 68.9237 21.9211 69.6111 23.7438C70.3062 25.5587 70.6537 27.7521 70.6537 30.324C70.6537 32.9113 70.3101 35.1201 69.6227 36.9505C68.9353 38.7732 67.9429 40.1672 66.6454 41.1327C65.3479 42.0903 63.7878 42.5692 61.9651 42.5692ZM61.9651 39.476C63.5715 39.476 64.8266 38.6921 65.7302 37.1243C66.6415 35.5565 67.0972 33.2897 67.0972 30.324C67.0972 28.3545 66.8887 26.6902 66.4716 25.3309C66.0623 23.9639 65.4714 22.929 64.6991 22.2261C63.9345 21.5156 63.0232 21.1603 61.9651 21.1603C60.3664 21.1603 59.1114 21.9481 58.2 23.5237C57.2887 25.0992 56.8291 27.366 56.8214 30.324C56.8214 32.3011 57.0261 33.9732 57.4354 35.3402C57.8525 36.6995 58.4433 37.7306 59.2079 38.4334C59.9725 39.1285 60.8916 39.476 61.9651 39.476ZM72.8061 42.1753V39.5803L80.8344 31.2623C81.6917 30.3587 82.3984 29.5671 82.9544 28.8874C83.5182 28.2001 83.9392 27.5475 84.2172 26.9296C84.4952 26.3117 84.6342 25.6553 84.6342 24.9602C84.6342 24.1724 84.4489 23.4928 84.0782 22.9212C83.7075 22.342 83.2016 21.8979 82.5606 21.589C81.9195 21.2723 81.1974 21.114 80.3942 21.114C79.5446 21.114 78.8032 21.2878 78.1699 21.6353C77.5366 21.9829 77.05 22.4733 76.7102 23.1066C76.3704 23.7399 76.2005 24.4813 76.2005 25.3309H72.7829C72.7829 23.8866 73.115 22.6239 73.7792 21.5426C74.4434 20.4614 75.3548 19.6234 76.5133 19.0287C77.6717 18.4263 78.9886 18.1251 80.4637 18.1251C81.9543 18.1251 83.2672 18.4224 84.4026 19.0171C85.5456 19.6041 86.4376 20.4073 87.0787 21.4268C87.7197 22.4385 88.0402 23.5816 88.0402 24.8559C88.0402 25.7364 87.8741 26.5975 87.5421 27.4393C87.2177 28.2812 86.65 29.2195 85.8391 30.2545C85.0281 31.2817 83.9005 32.529 82.4563 33.9964L77.7413 38.9315V39.1053H88.4225V42.1753H72.8061ZM99.8572 18.4495V42.1753H96.2659V22.0408H96.1269L90.4503 25.7479V22.3188L96.3702 18.4495H99.8572Z" fill="#111111"/>
</svg>
