<svg width="141" height="61" viewBox="0 0 141 61" fill="none" xmlns="http://www.w3.org/2000/svg">
<path d="M139.59 30.6348C139.59 34.5011 137.765 38.2526 134.324 41.7392C130.88 45.2293 125.855 48.4098 119.582 51.0983C107.038 56.4742 89.6524 59.8192 70.4058 59.8192C51.1591 59.8192 33.7733 56.4742 21.2296 51.0983C14.9562 48.4098 9.93163 45.2293 6.48719 41.7392C3.04621 38.2526 1.22134 34.5011 1.22134 30.6348C1.22134 26.7684 3.04621 23.0169 6.48719 19.5303C9.93163 16.0402 14.9562 12.8598 21.2296 10.1712C33.7733 4.79531 51.1591 1.45034 70.4058 1.45034C89.6524 1.45034 107.038 4.79531 119.582 10.1712C125.855 12.8598 130.88 16.0402 134.324 19.5303C137.765 23.0169 139.59 26.7684 139.59 30.6348Z" stroke="#111111" stroke-width="1.63115"/>
<path d="M35.2889 42.1753V39.5803L43.3172 31.2623C44.1745 30.3587 44.8812 29.5671 45.4373 28.8874C46.0011 28.2001 46.422 27.5475 46.7 26.9296C46.9781 26.3117 47.1171 25.6553 47.1171 24.9602C47.1171 24.1724 46.9317 23.4928 46.561 22.9212C46.1903 22.342 45.6844 21.8979 45.0434 21.589C44.4024 21.2723 43.6802 21.114 42.877 21.114C42.0275 21.114 41.286 21.2878 40.6527 21.6353C40.0194 21.9829 39.5329 22.4733 39.193 23.1066C38.8532 23.7399 38.6833 24.4813 38.6833 25.3309H35.2658C35.2658 23.8866 35.5979 22.6239 36.2621 21.5426C36.9263 20.4614 37.8376 19.6234 38.9961 19.0287C40.1546 18.4263 41.4714 18.1251 42.9465 18.1251C44.4371 18.1251 45.7501 18.4224 46.8854 19.0171C48.0284 19.6041 48.9205 20.4073 49.5615 21.4268C50.2025 22.4385 50.523 23.5816 50.523 24.8559C50.523 25.7364 50.357 26.5975 50.0249 27.4393C49.7005 28.2812 49.1329 29.2195 48.3219 30.2545C47.511 31.2817 46.3834 32.529 44.9391 33.9964L40.2241 38.9315V39.1053H50.9053V42.1753H35.2889ZM61.5986 42.5692C59.7682 42.5615 58.2043 42.0788 56.9068 41.1211C55.6093 40.1634 54.6168 38.7693 53.9295 36.9389C53.2421 35.1085 52.8984 32.9035 52.8984 30.324C52.8984 27.7521 53.2421 25.5549 53.9295 23.7322C54.6245 21.9095 55.6208 20.5193 56.9183 19.5616C58.2236 18.6039 59.7837 18.1251 61.5986 18.1251C63.4136 18.1251 64.9698 18.6078 66.2673 19.5732C67.5648 20.5309 68.5573 21.9211 69.2447 23.7438C69.9397 25.5587 70.2873 27.7521 70.2873 30.324C70.2873 32.9113 69.9436 35.1201 69.2562 36.9505C68.5689 38.7732 67.5764 40.1672 66.2789 41.1327C64.9814 42.0903 63.4213 42.5692 61.5986 42.5692ZM61.5986 39.476C63.2051 39.476 64.4601 38.6921 65.3637 37.1243C66.2751 35.5565 66.7307 33.2897 66.7307 30.324C66.7307 28.3545 66.5222 26.6902 66.1052 25.3309C65.6958 23.9639 65.105 22.929 64.3327 22.2261C63.5681 21.5156 62.6567 21.1603 61.5986 21.1603C59.9999 21.1603 58.7449 21.9481 57.8336 23.5237C56.9222 25.0992 56.4627 27.366 56.455 30.324C56.455 32.3011 56.6596 33.9732 57.069 35.3402C57.486 36.6995 58.0768 37.7306 58.8414 38.4334C59.606 39.1285 60.5251 39.476 61.5986 39.476ZM72.4396 42.1753V39.5803L80.468 31.2623C81.3252 30.3587 82.0319 29.5671 82.588 28.8874C83.1518 28.2001 83.5727 27.5475 83.8507 26.9296C84.1288 26.3117 84.2678 25.6553 84.2678 24.9602C84.2678 24.1724 84.0824 23.4928 83.7117 22.9212C83.341 22.342 82.8351 21.8979 82.1941 21.589C81.5531 21.2723 80.8309 21.114 80.0277 21.114C79.1782 21.114 78.4367 21.2878 77.8034 21.6353C77.1701 21.9829 76.6836 22.4733 76.3437 23.1066C76.0039 23.7399 75.834 24.4813 75.834 25.3309H72.4165C72.4165 23.8866 72.7486 22.6239 73.4128 21.5426C74.077 20.4614 74.9883 19.6234 76.1468 19.0287C77.3053 18.4263 78.6221 18.1251 80.0972 18.1251C81.5878 18.1251 82.9008 18.4224 84.0361 19.0171C85.1791 19.6041 86.0712 20.4073 86.7122 21.4268C87.3532 22.4385 87.6737 23.5816 87.6737 24.8559C87.6737 25.7364 87.5077 26.5975 87.1756 27.4393C86.8512 28.2812 86.2836 29.2195 85.4726 30.2545C84.6617 31.2817 83.5341 32.529 82.0898 33.9964L77.3748 38.9315V39.1053H88.056V42.1753H72.4396ZM90.4893 42.1753V39.5803L98.5176 31.2623C99.3749 30.3587 100.082 29.5671 100.638 28.8874C101.201 28.2001 101.622 27.5475 101.9 26.9296C102.178 26.3117 102.317 25.6553 102.317 24.9602C102.317 24.1724 102.132 23.4928 101.761 22.9212C101.391 22.342 100.885 21.8979 100.244 21.589C99.6028 21.2723 98.8806 21.114 98.0774 21.114C97.2279 21.114 96.4864 21.2878 95.8531 21.6353C95.2198 21.9829 94.7333 22.4733 94.3934 23.1066C94.0536 23.7399 93.8837 24.4813 93.8837 25.3309H90.4662C90.4662 23.8866 90.7983 22.6239 91.4625 21.5426C92.1267 20.4614 93.038 19.6234 94.1965 19.0287C95.355 18.4263 96.6718 18.1251 98.1469 18.1251C99.6375 18.1251 100.95 18.4224 102.086 19.0171C103.229 19.6041 104.121 20.4073 104.762 21.4268C105.403 22.4385 105.723 23.5816 105.723 24.8559C105.723 25.7364 105.557 26.5975 105.225 27.4393C104.901 28.2812 104.333 29.2195 103.522 30.2545C102.711 31.2817 101.584 32.529 100.14 33.9964L95.4245 38.9315V39.1053H106.106V42.1753L90.4893 42.1753Z" fill="#111111"/>
</svg>
