<svg width="141" height="61" viewBox="0 0 141 61" fill="none" xmlns="http://www.w3.org/2000/svg">
<path d="M140.046 30.5708C140.046 34.4371 138.221 38.1887 134.78 41.6753C131.335 45.1654 126.311 48.3458 120.037 51.0344C107.494 56.4103 90.1078 59.7552 70.8612 59.7552C51.6146 59.7552 34.2287 56.4103 21.685 51.0344C15.4117 48.3458 10.3871 45.1654 6.94264 41.6753C3.50166 38.1887 1.67678 34.4371 1.67678 30.5708C1.67678 26.7045 3.50166 22.9529 6.94264 19.4663C10.3871 15.9762 15.4117 12.7958 21.685 10.1072C34.2287 4.73135 51.6146 1.38638 70.8612 1.38638C90.1078 1.38638 107.494 4.73135 120.037 10.1072C126.311 12.7958 131.335 15.9762 134.78 19.4663C138.221 22.9529 140.046 26.7045 140.046 30.5708Z" stroke="#111111" stroke-width="1.63115"/>
<path d="M35.7444 42.1113V39.5163L43.7727 31.1984C44.63 30.2948 45.3366 29.5031 45.8927 28.8235C46.4565 28.1361 46.8774 27.4835 47.1555 26.8656C47.4335 26.2478 47.5725 25.5913 47.5725 24.8962C47.5725 24.1084 47.3872 23.4288 47.0165 22.8573C46.6457 22.278 46.1399 21.8339 45.4988 21.525C44.8578 21.2084 44.1357 21.05 43.3325 21.05C42.4829 21.05 41.7415 21.2238 41.1082 21.5714C40.4749 21.9189 39.9883 22.4093 39.6485 23.0426C39.3087 23.6759 39.1387 24.4174 39.1387 25.2669H35.7212C35.7212 23.8227 36.0533 22.5599 36.7175 21.4787C37.3817 20.3974 38.293 19.5594 39.4515 18.9648C40.61 18.3623 41.9268 18.0611 43.402 18.0611C44.8926 18.0611 46.2055 18.3585 47.3408 18.9532C48.4839 19.5401 49.3759 20.3434 50.0169 21.3628C50.658 22.3746 50.9785 23.5176 50.9785 24.7919C50.9785 25.6724 50.8124 26.5335 50.4803 27.3754C50.156 28.2172 49.5883 29.1556 48.7774 30.1905C47.9664 31.2177 46.8388 32.465 45.3946 33.9324L40.6795 38.8676V39.0413H51.3608V42.1113H35.7444ZM62.0541 42.5052C60.2237 42.4975 58.6597 42.0148 57.3622 41.0571C56.0647 40.0994 55.0723 38.7054 54.3849 36.875C53.6975 35.0446 53.3538 32.8396 53.3538 30.26C53.3538 27.6882 53.6975 25.4909 54.3849 23.6682C55.08 21.8455 56.0763 20.4553 57.3738 19.4977C58.679 18.54 60.2391 18.0611 62.0541 18.0611C63.869 18.0611 65.4253 18.5438 66.7228 19.5092C68.0203 20.4669 69.0127 21.8571 69.7001 23.6798C70.3952 25.4948 70.7427 27.6882 70.7427 30.26C70.7427 32.8473 70.399 35.0561 69.7117 36.8866C69.0243 38.7092 68.0319 40.1033 66.7344 41.0687C65.4369 42.0264 63.8768 42.5052 62.0541 42.5052ZM62.0541 39.4121C63.6605 39.4121 64.9155 38.6281 65.8192 37.0603C66.7305 35.4925 67.1862 33.2257 67.1862 30.26C67.1862 28.2906 66.9776 26.6262 66.5606 25.2669C66.1513 23.8999 65.5604 22.865 64.7881 22.1622C64.0235 21.4516 63.1122 21.0964 62.0541 21.0964C60.4554 21.0964 59.2003 21.8841 58.289 23.4597C57.3777 25.0352 56.9181 27.302 56.9104 30.26C56.9104 32.2372 57.1151 33.9092 57.5244 35.2763C57.9415 36.6355 58.5323 37.6666 59.2969 38.3694C60.0615 39.0645 60.9805 39.4121 62.0541 39.4121ZM81.8965 18.3855V42.1113H78.3052V21.9768H78.1662L72.4896 25.684V22.2549L78.4095 18.3855H81.8965ZM94.2465 18.0611C95.3046 18.0689 96.3472 18.2619 97.3744 18.6404C98.4016 19.0188 99.3284 19.6367 100.155 20.494C100.989 21.3512 101.653 22.5097 102.147 23.9694C102.649 25.4214 102.904 27.2286 102.912 29.3911C102.912 31.4687 102.703 33.3184 102.286 34.9403C101.869 36.5545 101.271 37.9176 100.491 39.0298C99.7184 40.1419 98.78 40.9876 97.6756 41.5668C96.5712 42.1461 95.3277 42.4357 93.9453 42.4357C92.5319 42.4357 91.2769 42.1577 90.1802 41.6016C89.0835 41.0455 88.1914 40.2771 87.5041 39.2962C86.8167 38.3076 86.3881 37.1723 86.2182 35.8903H89.7515C89.9832 36.9097 90.4544 37.7361 91.1649 38.3694C91.8832 38.995 92.8099 39.3078 93.9453 39.3078C95.683 39.3078 97.0384 38.5509 98.0116 37.0372C98.9847 35.5157 99.4751 33.3918 99.4828 30.6655H99.2975C98.8959 31.3297 98.3939 31.9012 97.7914 32.38C97.1967 32.8589 96.5287 33.2296 95.7873 33.4922C95.0458 33.7548 94.2542 33.8861 93.4124 33.8861C92.0453 33.8861 90.8019 33.5501 89.682 32.8782C88.5622 32.2063 87.6701 31.2833 87.0059 30.1094C86.3417 28.9355 86.0096 27.5955 86.0096 26.0895C86.0096 24.5911 86.3494 23.2319 87.0291 22.0116C87.7165 20.7913 88.6741 19.8259 89.9021 19.1154C91.1379 18.3971 92.586 18.0457 94.2465 18.0611ZM94.2581 21.0732C93.3544 21.0732 92.5396 21.2972 91.8136 21.7451C91.0954 22.1854 90.5277 22.7839 90.1107 23.5408C89.6936 24.2899 89.4851 25.124 89.4851 26.0431C89.4851 26.9622 89.6859 27.7963 90.0875 28.5454C90.4968 29.2869 91.0529 29.8777 91.7557 30.3179C92.4663 30.7504 93.2772 30.9667 94.1885 30.9667C94.8682 30.9667 95.5015 30.8354 96.0885 30.5728C96.6754 30.3102 97.189 29.9472 97.6292 29.4838C98.0695 29.0127 98.4132 28.4798 98.6603 27.8851C98.9074 27.2904 99.031 26.6648 99.031 26.0084C99.031 25.1356 98.8225 24.3247 98.4054 23.5755C97.9961 22.8264 97.4323 22.224 96.714 21.7683C95.9958 21.3049 95.1771 21.0732 94.2581 21.0732Z" fill="#111111"/>
</svg>
