<svg width="141" height="61" viewBox="0 0 141 61" fill="none" xmlns="http://www.w3.org/2000/svg">
<path d="M139.412 30.6348C139.412 34.5011 137.587 38.2526 134.146 41.7392C130.702 45.2293 125.677 48.4098 119.404 51.0983C106.86 56.4742 89.4744 59.8192 70.2278 59.8192C50.9812 59.8192 33.5953 56.4742 21.0516 51.0983C14.7783 48.4098 9.75365 45.2293 6.30921 41.7392C2.86824 38.2526 1.04336 34.5011 1.04336 30.6348C1.04336 26.7684 2.86824 23.0169 6.30921 19.5303C9.75365 16.0402 14.7783 12.8598 21.0516 10.1712C33.5953 4.79531 50.9812 1.45034 70.2278 1.45034C89.4744 1.45034 106.86 4.79531 119.404 10.1712C125.677 12.8598 130.702 16.0402 134.146 19.5303C137.587 23.0169 139.412 26.7684 139.412 30.6348Z" stroke="#111111" stroke-width="1.63115"/>
<path d="M35.111 42.1753V39.5803L43.1393 31.2623C43.9966 30.3587 44.7032 29.5671 45.2593 28.8874C45.8231 28.2001 46.244 27.5475 46.5221 26.9296C46.8001 26.3117 46.9391 25.6553 46.9391 24.9602C46.9391 24.1724 46.7537 23.4928 46.383 22.9212C46.0123 22.342 45.5064 21.8979 44.8654 21.589C44.2244 21.2723 43.5023 21.114 42.699 21.114C41.8495 21.114 41.1081 21.2878 40.4747 21.6353C39.8414 21.9829 39.3549 22.4733 39.0151 23.1066C38.6752 23.7399 38.5053 24.4813 38.5053 25.3309H35.0878C35.0878 23.8866 35.4199 22.6239 36.0841 21.5426C36.7483 20.4614 37.6596 19.6234 38.8181 19.0287C39.9766 18.4263 41.2934 18.1251 42.7686 18.1251C44.2591 18.1251 45.5721 18.4224 46.7074 19.0171C47.8505 19.6041 48.7425 20.4073 49.3835 21.4268C50.0245 22.4385 50.3451 23.5816 50.3451 24.8559C50.3451 25.7364 50.179 26.5975 49.8469 27.4393C49.5225 28.2812 48.9549 29.2195 48.1439 30.2545C47.333 31.2817 46.2054 32.529 44.7612 33.9964L40.0461 38.9315V39.1053H50.7274V42.1753H35.111ZM61.4207 42.5692C59.5902 42.5615 58.0263 42.0788 56.7288 41.1211C55.4313 40.1634 54.4388 38.7693 53.7515 36.9389C53.0641 35.1085 52.7204 32.9035 52.7204 30.324C52.7204 27.7521 53.0641 25.5549 53.7515 23.7322C54.4466 21.9095 55.4429 20.5193 56.7404 19.5616C58.0456 18.6039 59.6057 18.1251 61.4207 18.1251C63.2356 18.1251 64.7919 18.6078 66.0894 19.5732C67.3869 20.5309 68.3793 21.9211 69.0667 23.7438C69.7618 25.5587 70.1093 27.7521 70.1093 30.324C70.1093 32.9113 69.7656 35.1201 69.0783 36.9505C68.3909 38.7732 67.3985 40.1672 66.1009 41.1327C64.8034 42.0903 63.2433 42.5692 61.4207 42.5692ZM61.4207 39.476C63.0271 39.476 64.2821 38.6921 65.1857 37.1243C66.0971 35.5565 66.5528 33.2897 66.5528 30.324C66.5528 28.3545 66.3442 26.6902 65.9272 25.3309C65.5178 23.9639 64.927 22.929 64.1547 22.2261C63.3901 21.5156 62.4787 21.1603 61.4207 21.1603C59.8219 21.1603 58.5669 21.9481 57.6556 23.5237C56.7442 25.0992 56.2847 27.366 56.277 30.324C56.277 32.3011 56.4816 33.9732 56.891 35.3402C57.308 36.6995 57.8989 37.7306 58.6635 38.4334C59.4281 39.1285 60.3471 39.476 61.4207 39.476ZM72.2617 42.1753V39.5803L80.29 31.2623C81.1473 30.3587 81.8539 29.5671 82.41 28.8874C82.9738 28.2001 83.3947 27.5475 83.6728 26.9296C83.9508 26.3117 84.0898 25.6553 84.0898 24.9602C84.0898 24.1724 83.9045 23.4928 83.5337 22.9212C83.163 22.342 82.6572 21.8979 82.0161 21.589C81.3751 21.2723 80.653 21.114 79.8498 21.114C79.0002 21.114 78.2588 21.2878 77.6255 21.6353C76.9922 21.9829 76.5056 22.4733 76.1658 23.1066C75.8259 23.7399 75.656 24.4813 75.656 25.3309H72.2385C72.2385 23.8866 72.5706 22.6239 73.2348 21.5426C73.899 20.4614 74.8103 19.6234 75.9688 19.0287C77.1273 18.4263 78.4441 18.1251 79.9193 18.1251C81.4098 18.1251 82.7228 18.4224 83.8581 19.0171C85.0012 19.6041 85.8932 20.4073 86.5342 21.4268C87.1753 22.4385 87.4958 23.5816 87.4958 24.8559C87.4958 25.7364 87.3297 26.5975 86.9976 27.4393C86.6732 28.2812 86.1056 29.2195 85.2946 30.2545C84.4837 31.2817 83.3561 32.529 81.9119 33.9964L77.1968 38.9315V39.1053H87.8781V42.1753H72.2617ZM98.5714 42.5692C96.741 42.5615 95.177 42.0788 93.8795 41.1211C92.582 40.1634 91.5896 38.7693 90.9022 36.9389C90.2148 35.1085 89.8711 32.9035 89.8711 30.324C89.8711 27.7521 90.2148 25.5549 90.9022 23.7322C91.5973 21.9095 92.5936 20.5193 93.8911 19.5616C95.1963 18.6039 96.7564 18.1251 98.5714 18.1251C100.386 18.1251 101.943 18.6078 103.24 19.5732C104.538 20.5309 105.53 21.9211 106.217 23.7438C106.912 25.5587 107.26 27.7521 107.26 30.324C107.26 32.9113 106.916 35.1201 106.229 36.9505C105.542 38.7732 104.549 40.1672 103.252 41.1327C101.954 42.0903 100.394 42.5692 98.5714 42.5692ZM98.5714 39.476C100.178 39.476 101.433 38.6921 102.336 37.1243C103.248 35.5565 103.703 33.2897 103.703 30.324C103.703 28.3545 103.495 26.6902 103.078 25.3309C102.669 23.9639 102.078 22.929 101.305 22.2261C100.541 21.5156 99.6295 21.1603 98.5714 21.1603C96.9727 21.1603 95.7176 21.9481 94.8063 23.5237C93.8949 25.0992 93.4354 27.366 93.4277 30.324C93.4277 32.3011 93.6324 33.9732 94.0417 35.3402C94.4587 36.6995 95.0496 37.7306 95.8142 38.4334C96.5788 39.1285 97.4978 39.476 98.5714 39.476Z" fill="#111111"/>
</svg>
